<svg xmlns="http://www.w3.org/2000/svg" width="35" height="41" viewBox="0 0 35 41">
  <g id="Grupo_1" data-name="Grupo 1" transform="translate(0 -0.171)">
    <path id="Sustracci贸n_1" data-name="Sustracci贸n 1" d="M21,41h0A21.231,21.231,0,0,1,9.259,37.5,21.047,21.047,0,0,1,6.151,35a20.765,20.765,0,0,1-2.564-3.034A20.355,20.355,0,0,1,1.65,28.48a20.117,20.117,0,0,1,0-15.959A20.354,20.354,0,0,1,3.586,9.038,20.764,20.764,0,0,1,6.151,6a21.071,21.071,0,0,1,6.675-4.393A21.309,21.309,0,0,1,21,0Z" transform="translate(0 0.171)" fill="#6a2df2"/>
    <path id="Sustracci贸n_2" data-name="Sustracci贸n 2" d="M14,26h0a14.463,14.463,0,0,1-9.9-3.807,12.949,12.949,0,0,1-3-4.132,12.187,12.187,0,0,1,0-10.12,12.949,12.949,0,0,1,3-4.132A14.469,14.469,0,0,1,14,0Z" transform="translate(35 41.171) rotate(180)" fill="#ec52f2"/>
  </g>
</svg>
