<svg xmlns="http://www.w3.org/2000/svg" width="1532.957" height="1601.288" viewBox="0 0 1532.957 1601.288">
  <g id="Ilustration" transform="translate(-952.701 1)">
    <path id="Unión_1" data-name="Unión 1" d="M0,970.575S271.659,4.558,271.589,4.553,399.11,4.28,399.11,4.28v966.3Zm399.11-.287V4.28H526.82l271.4,966.009Z" transform="translate(1073.701 629.712)" fill="#fff" opacity="0.114"/>
    <g id="Layer_2" data-name="Layer 2" transform="translate(919.698 350.026)">
      <g id="Layer_2-2" data-name="Layer 2" transform="translate(0.003 1)">
        <ellipse id="Elipse_4" data-name="Elipse 4" cx="120.333" cy="26.599" rx="120.333" ry="26.599" transform="translate(780.89 997.454)" fill="#1c0862"/>
        <line id="Línea_1" data-name="Línea 1" x1="67.593" y2="211.55" transform="translate(833.63 1024.052)" fill="none" stroke="#1c0862" stroke-linecap="round" stroke-miterlimit="10" stroke-width="4"/>
        <line id="Línea_2" data-name="Línea 2" x2="67.593" y2="211.55" transform="translate(901.223 1024.052)" fill="none" stroke="#1c0862" stroke-linecap="round" stroke-miterlimit="10" stroke-width="4"/>
        <line id="Línea_3" data-name="Línea 3" y1="48.316" x2="75.353" transform="translate(855.824 1117.824)" fill="none" stroke="#1c0862" stroke-linecap="round" stroke-miterlimit="10" stroke-width="2"/>
        <line id="Línea_4" data-name="Línea 4" x2="75.372" y2="48.316" transform="translate(870.964 1117.824)" fill="none" stroke="#1c0862" stroke-linecap="round" stroke-miterlimit="10" stroke-width="2"/>
        <path id="Trazado_1" data-name="Trazado 1" d="M394.966,356.86c-.305,9.381-.172,42.234-1.716,56.286" transform="translate(624.683 438.196)" fill="none" stroke="#1f161e" stroke-linecap="round" stroke-miterlimit="10" stroke-width="1"/>
        <path id="Trazado_2" data-name="Trazado 2" d="M633.262,386.628H644.7a4.557,4.557,0,0,0,4.538-4.538v-70.32a4.482,4.482,0,0,0-1.335-3.2l-14.453-14.453a4.519,4.519,0,0,0-3.2-1.335H587.558a4.557,4.557,0,0,0-4.538,4.538v6.788" transform="translate(796.75 380.094)" fill="#521dcb"/>
        <path id="Trazado_3" data-name="Trazado 3" d="M165.513,430.283c59.932,11.355,49.239,369.055-65.8,347.417C-8.921,757.071,92.4,416.373,165.513,430.283Z" transform="translate(145.249 298.474)" fill="#3a109a"/>
        <path id="Trazado_4" data-name="Trazado 4" d="M14.631,445.382c47.693-27,247.33,224.209,156.013,275.877C84.373,770.277-43.44,478.313,14.631,445.382Z" transform="translate(32.997 327.536)" fill="#ab8de5"/>
        <path id="Trazado_5" data-name="Trazado 5" d="M187.8,715.217H67.367a19.715,19.715,0,0,1-19.588-17.538L32.575,561.16a19.746,19.746,0,0,1,19.588-22.08H202.372a19.714,19.714,0,0,1,19.588,21.828L207.419,697.427A19.746,19.746,0,0,1,187.8,715.217Z" transform="translate(102.87 533.75)" fill="#3a109a"/>
        <path id="Trazado_6" data-name="Trazado 6" d="M172.192,386.34c45.643,13.248,10.662,289.346-76.745,263.922C12.93,626.289,116.644,370.19,172.192,386.34Z" transform="translate(172.415 203.123)" fill="#521dcb"/>
        <path id="Trazado_7" data-name="Trazado 7" d="M237.9,458.416c31.543,27.19-96.775,235.186-157.4,182.951C23.246,592.254,199.383,425.359,237.9,458.416Z" transform="translate(181.972 350.713)" fill="#ab8de5"/>
        <path id="Trazado_8" data-name="Trazado 8" d="M116.152,394.94c68.323,0,130.873,436.242,0,436.242C-7.434,831.182,32.973,394.94,116.152,394.94Z" transform="translate(114.616 223.227)" fill="#7575ea"/>
        <rect id="Rectángulo_10" data-name="Rectángulo 10" width="265.909" height="48.829" rx="4.05" transform="translate(97.529 1043.306)" fill="#521dcb"/>
        <path id="Trazado_9" data-name="Trazado 9" d="M621.668,298.72H579.72a5.11,5.11,0,0,0-5.11,5.129v83.514a5.129,5.129,0,0,0,5.11,5.129h56.038a5.129,5.129,0,0,0,5.11-5.129v-69.4a5.109,5.109,0,0,0-1.487-3.623l-14.11-14.11A5.11,5.11,0,0,0,621.668,298.72Z" transform="translate(789.124 385.48)" fill="#cfc2f4"/>
        <path id="Trazado_10" data-name="Trazado 10" d="M617.5,315.957H603.26a2.86,2.86,0,0,1-2.86-2.86V298.72" transform="translate(812.509 385.48)" fill="#ab8de5"/>
        <path id="Trazado_11" data-name="Trazado 11" d="M625.922,310.036H611.679a2.9,2.9,0,0,1-2.879-2.879V292.78" transform="translate(820.125 380.094)" fill="#3a109a"/>
        <rect id="Rectángulo_11" data-name="Rectángulo 11" width="109.865" height="43.664" rx="3.03" transform="translate(1259.704 588.73)" fill="#ab8de5"/>
        <path id="Trazado_12" data-name="Trazado 12" d="M555.143,306.309l13.233-40.079H541.91Z" transform="translate(759.475 356.021)" fill="#ab8de5"/>
        <path id="Trazado_13" data-name="Trazado 13" d="M540.377,254.75l-11.1,19.2h22.175Z" transform="translate(748.023 345.611)" fill="#fff"/>
        <path id="Trazado_14" data-name="Trazado 14" d="M567.887,273.951l11.1-19.2H556.79Z" transform="translate(772.967 345.611)" fill="#fff"/>
        <ellipse id="Elipse_6" data-name="Elipse 6" cx="8.332" cy="8.332" rx="8.332" ry="8.332" transform="translate(1306.285 601.639)" fill="#fff"/>
        <rect id="Rectángulo_12" data-name="Rectángulo 12" width="74.629" height="49.117" rx="2.65" transform="translate(1236.48 496.198)" fill="#cfc2f4"/>
        <line id="Línea_5" data-name="Línea 5" x2="34.969" y2="23.014" transform="translate(1238.826 497.742)" fill="none" stroke="#1d0c55" stroke-linecap="round" stroke-linejoin="round" stroke-width="0.82"/>
        <line id="Línea_6" data-name="Línea 6" x1="37.314" y2="24.558" transform="translate(1273.795 496.198)" fill="none" stroke="#1d0c55" stroke-linecap="round" stroke-linejoin="round" stroke-width="0.82"/>
        <ellipse id="Elipse_7" data-name="Elipse 7" cx="10.678" cy="10.678" rx="10.678" ry="10.678" transform="translate(1300.432 485.52)" fill="#ab8de5"/>
        <rect id="Rectángulo_13" data-name="Rectángulo 13" width="395.076" height="8.569" rx="1.23" transform="translate(1170.881 144.882)" fill="#3a109a"/>
        <rect id="Rectángulo_14" data-name="Rectángulo 14" width="37.23" height="170.155" rx="2.56" transform="translate(1307.851 -25.273)" fill="#7575ea"/>
        <rect id="Rectángulo_15" data-name="Rectángulo 15" width="18.628" height="130.264" rx="2.13" transform="translate(1345.08 14.618)" fill="#521dcb"/>
        <rect id="Rectángulo_16" data-name="Rectángulo 16" width="18.628" height="130.264" rx="2.06" transform="translate(1363.709 14.618)" fill="#7575ea"/>
        <rect id="Rectángulo_17" data-name="Rectángulo 17" width="18.628" height="130.264" rx="2.2" transform="translate(1378.753 29.276) rotate(-24.66)" fill="#7575ea"/>
        <ellipse id="Elipse_8" data-name="Elipse 8" cx="10.405" cy="10.405" rx="10.405" ry="10.405" transform="translate(1316.047 81.014)" fill="#3a109a"/>
        <rect id="Rectángulo_18" data-name="Rectángulo 18" width="23.844" height="5.003" rx="0.94" transform="translate(1314.53 108.051)" fill="#3a109a"/>
        <rect id="Rectángulo_19" data-name="Rectángulo 19" width="23.844" height="5.003" rx="0.94" transform="translate(1314.53 120.852)" fill="#3a109a"/>
        <rect id="Rectángulo_20" data-name="Rectángulo 20" width="17.084" height="3.585" rx="0.94" transform="translate(1371.228 692.818)" fill="#ab8de5"/>
        <rect id="Rectángulo_21" data-name="Rectángulo 21" width="17.084" height="3.585" rx="0.94" transform="translate(1371.228 701.436)" fill="#ab8de5"/>
        <rect id="Rectángulo_22" data-name="Rectángulo 22" width="52.873" height="3.585" rx="0.94" transform="translate(1370.446 716.175)" fill="#ab8de5"/>
        <rect id="Rectángulo_23" data-name="Rectángulo 23" width="52.873" height="3.585" rx="0.94" transform="translate(1370.446 724.641)" fill="#ab8de5"/>
        <rect id="Rectángulo_24" data-name="Rectángulo 24" width="52.873" height="3.585" rx="0.94" transform="translate(1370.446 733.107)" fill="#ab8de5"/>
        <rect id="Rectángulo_25" data-name="Rectángulo 25" width="3.885" height="94.791" rx="0.73" transform="translate(1352.452 32.341)" fill="#7575ea"/>
        <rect id="Rectángulo_26" data-name="Rectángulo 26" width="29.911" height="13.253" rx="2.49" transform="translate(1251.328 149.166)" fill="#3a109a"/>
        <rect id="Rectángulo_27" data-name="Rectángulo 27" width="29.911" height="13.253" rx="2.49" transform="translate(1455.598 149.166)" fill="#3a109a"/>
        <rect id="Rectángulo_28" data-name="Rectángulo 28" width="115.375" height="79.72" rx="12" transform="translate(1082.552 538.508)" fill="#cfc2f4"/>
        <rect id="Rectángulo_29" data-name="Rectángulo 29" width="17.351" height="54.055" transform="translate(1106.423 551.34)" fill="#ab8de5"/>
        <rect id="Rectángulo_30" data-name="Rectángulo 30" width="17.351" height="18.114" transform="translate(1131.573 587.3)" fill="#ab8de5"/>
        <rect id="Rectángulo_31" data-name="Rectángulo 31" width="17.351" height="33.348" transform="translate(1156.703 572.047)" fill="#ab8de5"/>
        <g id="Grupo_3" data-name="Grupo 3" transform="translate(117.491)">
          <rect id="Rectángulo_9" data-name="Rectángulo 9" width="42.232" height="115.119" rx="6.33" transform="translate(414.698 88.069)" fill="#4e1ebe"/>
          <circle id="Elipse_5" data-name="Elipse 5" cx="42.365" cy="42.365" r="42.365" transform="translate(393.449 240.983)" fill="#fbdc8e"/>
          <path id="Trazado_15" data-name="Trazado 15" d="M274.252,152.88A127.729,127.729,0,0,0,146.49,280.609H402.014A127.729,127.729,0,0,0,274.252,152.88Z" transform="translate(161.562 2.739)" fill="#ab8de5"/>
          <line id="Línea_7" data-name="Línea 7" y1="463.413" transform="translate(435.814 -351.026)" fill="none" stroke="#4e1ebe" stroke-linecap="round" stroke-linejoin="round" stroke-width="2"/>
        </g>
        <path id="Trazado_16" data-name="Trazado 16" d="M485.506,574.68c0,4.519-2.65,33.024,2.631,35.656s63.341,4.233,65.972,1.583,4.214-8.18,1.907-9.762-24.787-6.063-27.838-8.18-7.265-13.347-5.72-19.3" transform="translate(707.73 635.696)" fill="#1c0862"/>
        <path id="Trazado_17" data-name="Trazado 17" d="M527.283,492l32.681-11.726c-1.411-59.623-15.349-192.845-35.141-212.656-4.652-4.633-96.67-12.718-113.087-12.718-97.967,0-127.025,11.173-134.4,18.571-22.881,22.881-30.012,128.894-30.012,166.018s104.869,56.382,104.869,56.382l122.926,8.447s26.961,2.784,50.28,4.157C525.91,501.324,527.283,492,527.283,492Z" transform="translate(492.366 345.747)" fill="#7575ea"/>
        <path id="Trazado_18" data-name="Trazado 18" d="M445.22,401.079c8.943-2.65,97.872-17.16,117.244,1.907s80.349,292.433,80.349,298.725h-49.1L527.438,559.069" transform="translate(671.805 471.237)" fill="#1c0862"/>
        <path id="Trazado_19" data-name="Trazado 19" d="M282.845,385.556c-2.231,11.154-15.635,23.128-15.635,83.9,0,84.029,68.832,85.8,93.543,85.8,76.993,0,201.559-22.881,209.967-27.075,5.587,9.343,108.416,219.272,108.892,223.963h47.344S697.612,438.067,644.663,402.45C627.464,391.009,322.333,378.768,282.845,385.556Z" transform="translate(510.401 462.449)" fill="#521dcb"/>
        <path id="Trazado_20" data-name="Trazado 20" d="M445.681,352.41c-12.432,0-22.69,2.955-50.833,8.485l-1.468,53.846c26.694-10.754,32.891-25.7,40.632-25.7,19.334,0,29.44,9.972,40.861,9.972,7.97,0,22.309-6.254,22.309-14.758C497.181,366.443,461.087,352.41,445.681,352.41Z" transform="translate(624.801 434.161)" fill="#cfc2f4"/>
        <path id="Trazado_21" data-name="Trazado 21" d="M524.876,553.07c0,4.538-2.65,33.024,2.631,35.675s63.341,4.214,65.972,1.583,4.214-8.18,1.907-9.762-24.787-6.082-27.838-8.2-7.265-13.347-5.72-19.3" transform="translate(743.427 616.102)" fill="#1c0862"/>
        <path id="Trazado_22" data-name="Trazado 22" d="M362.488,289.35c0,7.188-41.738,7.4-41.738,0V230.89h41.738Z" transform="translate(558.946 323.977)" fill="#cfc2f4"/>
        <path id="Trazado_23" data-name="Trazado 23" d="M348.893,248.118c-3.813,0-28.143,10.754-28.143,16.76V233.15C326.813,233.15,348.893,248.118,348.893,248.118Z" transform="translate(558.946 326.026)" fill="#3a109a"/>
        <ellipse id="Elipse_9" data-name="Elipse 9" cx="50.528" cy="50.528" rx="50.528" ry="50.528" transform="translate(865.377 475.567)" fill="#cfc2f4"/>
        <path id="Trazado_24" data-name="Trazado 24" d="M421.574,218.992c-6.254,9.934-19.334,14.491-33.5,14.491-12.069,0-29.649-3.508-42.157,3.623-6.769,3.813-14.529,12.489-16.093,29.859,0,2.974-3.375,14.51-3.375,18.228,0,2.536-2.86,4.195-7.627,4.195-2.46,0-7.322-3.985-7.322-10.067,0-7.036,2.8-9.534,2.8-15.5s-7.3-11.707-7.3-28.3c0-23.891,15.254-38.611,26.046-38.611,9.839,0,12.928,2.288,14.167,3.26,0-21.717,28.6-31.632,39.946-31.632,12.966,0,19.067,5.32,19.067,12.089,0,10.792-5.148,19.963-7.76,22.023a32.033,32.033,0,0,1,21.546-8.218c14.853,0,19.849,9.762,19.849,16.436,0,14.51-17.408,27.952-23.891,27.952a69.272,69.272,0,0,0-5.72-9.9" transform="translate(546.479 267.444)" fill="#3a109a"/>
        <ellipse id="Elipse_10" data-name="Elipse 10" cx="10.773" cy="10.773" rx="10.773" ry="10.773" transform="translate(867.093 521.995)" fill="#ab8de5"/>
        <ellipse id="Elipse_11" data-name="Elipse 11" cx="8.351" cy="4.347" rx="8.351" ry="4.347" transform="translate(958.577 526.667)" fill="#ab8de5"/>
        <ellipse id="Elipse_12" data-name="Elipse 12" cx="8.351" cy="4.347" rx="8.351" ry="4.347" transform="translate(906.047 526.667)" fill="#ab8de5"/>
        <path id="Trazado_25" data-name="Trazado 25" d="M355.8,213.65c1.564,2.231,9.534,11.593,1.125,15.387" transform="translate(590.726 308.346)" fill="none" stroke="#1f161e" stroke-linecap="round" stroke-miterlimit="10" stroke-width="1"/>
        <path id="Trazado_26" data-name="Trazado 26" d="M351.568,230.27c-2.517,0-6.388-3.127-8.428-5.93" transform="translate(579.247 318.038)" fill="none" stroke="#1f161e" stroke-linecap="round" stroke-miterlimit="10" stroke-width="1"/>
        <path id="Trazado_27" data-name="Trazado 27" d="M382.5,298.62c3.813,8.1,22.213,86.279,22.213,111.047" transform="translate(614.936 385.389)" fill="none" stroke="#4e1ebe" stroke-linecap="round" stroke-miterlimit="10" stroke-width="1"/>
        <path id="Trazado_28" data-name="Trazado 28" d="M247.32,348.41c0,87.88.82,113.373,36.094,113.373,81.3,0,204.209-66.735,226.117-66.735,19.353,0,29.459,9.991,40.88,9.991,7.951,0,22.289-6.273,22.289-14.758,0-17.828-36.094-31.861-51.481-31.861-34.645,0-172.9,33.406-176.276,33.406s-9.057-1.468-9.057-7.15c0-10.315,6.75-34.149,7.627-36.228Z" transform="translate(492.366 430.534)" fill="#cfc2f4"/>
        <path id="Trazado_29" data-name="Trazado 29" d="M319.146,308.21c-2.326,6.693-20.459,75.849-22.556,84.277" transform="translate(537.04 394.084)" fill="none" stroke="#4e1ebe" stroke-linecap="round" stroke-miterlimit="10" stroke-width="1"/>
        <rect id="Rectángulo_32" data-name="Rectángulo 32" width="19.525" height="403.461" rx="5.12" transform="matrix(-0.967, 0.254, -0.254, -0.967, 1565.957, 1241.672)" fill="#3a109a"/>
        <rect id="Rectángulo_33" data-name="Rectángulo 33" width="19.525" height="403.461" rx="5.12" transform="matrix(0.967, 0.254, -0.254, 0.967, 1429.589, 851.481)" fill="#3a109a"/>
        <rect id="Rectángulo_34" data-name="Rectángulo 34" width="19.525" height="403.461" rx="5.12" transform="matrix(0.967, 0.254, -0.254, 0.967, 1294.883, 851.479)" fill="#7575ea"/>
        <rect id="Rectángulo_35" data-name="Rectángulo 35" width="19.558" height="404.146" rx="5.129" transform="translate(1429.558 1234.932) rotate(165.548)" fill="#7575ea"/>
        <rect id="Rectángulo_36" data-name="Rectángulo 36" width="19.525" height="403.461" rx="5.12" transform="matrix(0.967, 0.254, -0.254, 0.967, 744.949, 851.492)" fill="#3a109a"/>
        <rect id="Rectángulo_37" data-name="Rectángulo 37" width="19.525" height="403.461" rx="5.12" transform="matrix(-0.967, 0.254, -0.254, -0.967, 879.653, 1241.7)" fill="#3a109a"/>
        <rect id="Rectángulo_38" data-name="Rectángulo 38" width="961.422" height="28.887" rx="4.53" transform="translate(553.305 835.631)" fill="#7575ea"/>
        <rect id="Rectángulo_39" data-name="Rectángulo 39" width="19.525" height="403.461" rx="5.12" transform="matrix(0.967, 0.254, -0.254, 0.967, 605.427, 851.498)" fill="#7575ea"/>
        <rect id="Rectángulo_40" data-name="Rectángulo 40" width="19.525" height="403.461" rx="5.12" transform="matrix(-0.967, 0.254, -0.254, -0.967, 740.128, 1241.701)" fill="#7575ea"/>
        <path id="Trazado_30" data-name="Trazado 30" d="M604.16,434.747H427.77l31.957-109.9a12.832,12.832,0,0,1,12.355-9.133H621.759a12.623,12.623,0,0,1,12.355,16.036Z" transform="translate(655.983 400.884)" fill="#1c0862"/>
        <ellipse id="Elipse_13" data-name="Elipse 13" cx="10.792" cy="10.792" rx="10.792" ry="10.792" transform="translate(1182.806 765.311)" fill="#fff"/>
        <rect id="Rectángulo_41" data-name="Rectángulo 41" width="123.765" height="7.722" transform="translate(980.943 827.909)" fill="#1c0862"/>
      </g>
    </g>
  </g>
</svg>
