<svg xmlns="http://www.w3.org/2000/svg" width="321.693" height="55.413" viewBox="0 0 321.693 55.413">
  <g id="Grupo_2" data-name="Grupo 2" transform="translate(-134 -160)">
    <g id="Grupo_1" data-name="Grupo 1" transform="translate(134 160.239)">
      <path id="Sustracci贸n_1" data-name="Sustracci贸n 1" d="M27,53h0A27.142,27.142,0,0,1,7.908,45.238a26.806,26.806,0,0,1-3.3-3.922,26.354,26.354,0,0,1-2.489-4.5,26.134,26.134,0,0,1,0-20.63,26.352,26.352,0,0,1,2.489-4.5,26.806,26.806,0,0,1,3.3-3.922A27.173,27.173,0,0,1,27,0Z" transform="translate(0 -0.239)" fill="#6a2df2"/>
      <path id="Sustracci贸n_2" data-name="Sustracci贸n 2" d="M16,35H16A18.421,18.421,0,0,1,3.272,30.021a16.925,16.925,0,0,1-3.857-5.4,16.185,16.185,0,0,1,0-13.234,16.925,16.925,0,0,1,3.857-5.4A18.429,18.429,0,0,1,16,1Z" transform="translate(43 53.761) rotate(180)" fill="#ec52f2"/>
    </g>
    <path id="Trazado_46" data-name="Trazado 46" d="M1.893-13.749A16.128,16.128,0,0,1,2.825-19.2a13.12,13.12,0,0,1,2.811-4.62,13.688,13.688,0,0,1,4.676-3.2,16.41,16.41,0,0,1,6.5-1.2,16.56,16.56,0,0,1,5.956.974,12.99,12.99,0,0,1,4.272,2.6,11.686,11.686,0,0,1,2.686,3.7A12.462,12.462,0,0,1,30.838-16.7H22.126a4.707,4.707,0,0,0-1.489-2.936,5.256,5.256,0,0,0-3.716-1.183,6.682,6.682,0,0,0-2.895.571A5.411,5.411,0,0,0,12.065-18.7a6.261,6.261,0,0,0-1.113,2.254,10.253,10.253,0,0,0-.348,2.7,9.685,9.685,0,0,0,.376,2.714,6.463,6.463,0,0,0,1.141,2.254A5.374,5.374,0,0,0,14.139-7.25a7.062,7.062,0,0,0,2.95.571,5.224,5.224,0,0,0,3.368-.932,5.682,5.682,0,0,0,1.726-2.714h8.711a12.343,12.343,0,0,1-1.336,4.342,11.8,11.8,0,0,1-2.825,3.507A13.1,13.1,0,0,1,22.46-.111a17.287,17.287,0,0,1-5.65.863,16.41,16.41,0,0,1-6.5-1.2,13.688,13.688,0,0,1-4.676-3.2,13.12,13.12,0,0,1-2.811-4.62A16.21,16.21,0,0,1,1.893-13.749Zm32.87,0a16.251,16.251,0,0,1,.988-5.733,13.619,13.619,0,0,1,2.755-4.551,13.311,13.311,0,0,1,4.133-3.02,11.875,11.875,0,0,1,5.121-1.113,10.541,10.541,0,0,1,5.358,1.308,8.945,8.945,0,0,1,3.409,3.312V-27.47h8.711V0H56.527V-3.869A8.538,8.538,0,0,1,53.215-.64,10.613,10.613,0,0,1,47.76.7,11.9,11.9,0,0,1,42.653-.417a13.158,13.158,0,0,1-4.147-3.034A13.776,13.776,0,0,1,35.75-8.016,16.251,16.251,0,0,1,34.762-13.749Zm8.656,0a7.64,7.64,0,0,0,.487,2.714,6.849,6.849,0,0,0,1.336,2.227,6.536,6.536,0,0,0,2.046,1.5,6.13,6.13,0,0,0,2.672.571,6.222,6.222,0,0,0,2.686-.571,6.491,6.491,0,0,0,2.06-1.5,6.881,6.881,0,0,0,1.336-2.213,7.606,7.606,0,0,0,.487-2.728,7.306,7.306,0,0,0-.487-2.672A7.49,7.49,0,0,0,54.7-18.647a6.082,6.082,0,0,0-2.046-1.531,6.328,6.328,0,0,0-2.7-.557,6.26,6.26,0,0,0-2.672.557,6.082,6.082,0,0,0-2.046,1.531,7.49,7.49,0,0,0-1.336,2.227A7.306,7.306,0,0,0,43.418-13.749ZM72.642,12.413V-27.47h8.711v3.924A8.725,8.725,0,0,1,84.665-26.8,10.612,10.612,0,0,1,90.2-28.166,11.811,11.811,0,0,1,95.3-27.053a13.311,13.311,0,0,1,4.133,3.02,13.772,13.772,0,0,1,2.769,4.564,16.082,16.082,0,0,1,1,5.719,16.049,16.049,0,0,1-1,5.733A13.963,13.963,0,0,1,99.43-3.451,13.206,13.206,0,0,1,95.3-.417,11.811,11.811,0,0,1,90.2.7,10.528,10.528,0,0,1,84.665-.682a8.9,8.9,0,0,1-3.312-3.242V12.413Zm8.711-26.162a7.64,7.64,0,0,0,.487,2.714,6.722,6.722,0,0,0,1.35,2.227,6.705,6.705,0,0,0,2.06,1.5,6.13,6.13,0,0,0,2.672.571,6.13,6.13,0,0,0,2.672-.571,6.705,6.705,0,0,0,2.06-1.5A6.752,6.752,0,0,0,94-11.021a7.606,7.606,0,0,0,.487-2.728,7.528,7.528,0,0,0-.487-2.7,6.916,6.916,0,0,0-1.35-2.227,6.416,6.416,0,0,0-2.06-1.5,6.26,6.26,0,0,0-2.672-.557,6.26,6.26,0,0,0-2.672.557,6.416,6.416,0,0,0-2.06,1.5,6.916,6.916,0,0,0-1.35,2.227A7.528,7.528,0,0,0,81.353-13.749ZM108.935,0V-39.911h8.711v16.365a8.725,8.725,0,0,1,3.312-3.256,10.612,10.612,0,0,1,5.539-1.364,12.066,12.066,0,0,1,5.093,1.085,12.745,12.745,0,0,1,4.133,3.02,14.1,14.1,0,0,1,2.769,4.592,16.082,16.082,0,0,1,1,5.719,16.049,16.049,0,0,1-1,5.733,13.963,13.963,0,0,1-2.769,4.564A13.206,13.206,0,0,1,131.59-.417,11.939,11.939,0,0,1,126.441.7,10.331,10.331,0,0,1,120.875-.71a9.012,9.012,0,0,1-3.229-3.159V0Zm8.711-13.749a7.573,7.573,0,0,0,.487,2.741,7.121,7.121,0,0,0,1.35,2.227,6.152,6.152,0,0,0,2.06,1.5,6.4,6.4,0,0,0,2.672.543,6.13,6.13,0,0,0,2.672-.571,6.705,6.705,0,0,0,2.06-1.5,6.752,6.752,0,0,0,1.35-2.213,7.606,7.606,0,0,0,.487-2.728,7.773,7.773,0,0,0-.459-2.644A6.851,6.851,0,0,0,129-18.647a6.153,6.153,0,0,0-2.087-1.531,6.448,6.448,0,0,0-2.7-.557,6.26,6.26,0,0,0-2.672.557,6.229,6.229,0,0,0-2.06,1.531,7.339,7.339,0,0,0-1.35,2.227A7.306,7.306,0,0,0,117.646-13.749Zm25.717,0a14.882,14.882,0,0,1,1.044-5.566,13.5,13.5,0,0,1,3.02-4.592,14.612,14.612,0,0,1,4.787-3.145,16.545,16.545,0,0,1,6.4-1.169,16.65,16.65,0,0,1,6.415,1.169,14.42,14.42,0,0,1,4.787,3.145,13.426,13.426,0,0,1,2.992,4.592,15.059,15.059,0,0,1,1.03,5.566,15.168,15.168,0,0,1-1.03,5.58,13.4,13.4,0,0,1-2.992,4.606A14.42,14.42,0,0,1,165.03-.417,16.65,16.65,0,0,1,158.615.751a16.545,16.545,0,0,1-6.4-1.169,14.612,14.612,0,0,1-4.787-3.145,13.5,13.5,0,0,1-3.02-4.592A14.957,14.957,0,0,1,143.363-13.749Zm8.711,0a7.983,7.983,0,0,0,.459,2.741,6.851,6.851,0,0,0,1.308,2.227,6.007,6.007,0,0,0,2.046,1.5,6.4,6.4,0,0,0,2.672.543,6.687,6.687,0,0,0,2.714-.543,5.909,5.909,0,0,0,2.087-1.5,7.306,7.306,0,0,0,1.336-2.213,7.541,7.541,0,0,0,.487-2.755,7.528,7.528,0,0,0-.487-2.7,7.051,7.051,0,0,0-1.336-2.227,6.183,6.183,0,0,0-2.073-1.5,6.516,6.516,0,0,0-2.728-.557,6.26,6.26,0,0,0-2.672.557,6.26,6.26,0,0,0-2.046,1.5,6.662,6.662,0,0,0-1.308,2.227A7.935,7.935,0,0,0,152.074-13.749Zm25.411,0a14.882,14.882,0,0,1,1.044-5.566,13.5,13.5,0,0,1,3.02-4.592,14.612,14.612,0,0,1,4.787-3.145,16.545,16.545,0,0,1,6.4-1.169,16.65,16.65,0,0,1,6.415,1.169,14.42,14.42,0,0,1,4.787,3.145,13.426,13.426,0,0,1,2.992,4.592,15.059,15.059,0,0,1,1.03,5.566,15.168,15.168,0,0,1-1.03,5.58,13.4,13.4,0,0,1-2.992,4.606,14.42,14.42,0,0,1-4.787,3.145A16.65,16.65,0,0,1,192.737.751a16.545,16.545,0,0,1-6.4-1.169,14.612,14.612,0,0,1-4.787-3.145,13.5,13.5,0,0,1-3.02-4.592A14.957,14.957,0,0,1,177.485-13.749Zm8.711,0a7.983,7.983,0,0,0,.459,2.741,6.851,6.851,0,0,0,1.308,2.227,6.007,6.007,0,0,0,2.046,1.5,6.4,6.4,0,0,0,2.672.543,6.687,6.687,0,0,0,2.714-.543,5.909,5.909,0,0,0,2.087-1.5,7.306,7.306,0,0,0,1.336-2.213,7.541,7.541,0,0,0,.487-2.755,7.528,7.528,0,0,0-.487-2.7,7.051,7.051,0,0,0-1.336-2.227,6.183,6.183,0,0,0-2.073-1.5,6.516,6.516,0,0,0-2.728-.557,6.26,6.26,0,0,0-2.672.557,6.26,6.26,0,0,0-2.046,1.5,6.662,6.662,0,0,0-1.308,2.227A7.935,7.935,0,0,0,186.2-13.749ZM213.472,0V-39.911h8.711v24.075L230.7-27.47h10.354L230.338-13.749,241,0H230.644l-8.461-11.522V0Zm30.7-5.177A5.4,5.4,0,0,1,244.63-7.4a5.924,5.924,0,0,1,1.225-1.8,5.832,5.832,0,0,1,1.823-1.225,5.6,5.6,0,0,1,2.254-.459,5.6,5.6,0,0,1,2.254.459A5.832,5.832,0,0,1,254.009-9.2a5.924,5.924,0,0,1,1.225,1.8,5.4,5.4,0,0,1,.459,2.227,5.308,5.308,0,0,1-.459,2.213,6.161,6.161,0,0,1-1.225,1.8A5.532,5.532,0,0,1,252.186.056,5.75,5.75,0,0,1,249.932.5a5.75,5.75,0,0,1-2.254-.445,5.532,5.532,0,0,1-1.823-1.225,6.161,6.161,0,0,1-1.225-1.8A5.308,5.308,0,0,1,244.17-5.177Z" transform="translate(200 203)"/>
  </g>
</svg>
